<?xml version="1.0" standalone="no"?>
<!DOCTYPE svg PUBLIC "-//W3C//DTD SVG 20010904//EN"
 "http://www.w3.org/TR/2001/REC-SVG-20010904/DTD/svg10.dtd">
<svg version="1.0" xmlns="http://www.w3.org/2000/svg"
 width="700.000000pt" height="700.000000pt" viewBox="0 0 700.000000 700.000000"
 preserveAspectRatio="xMidYMid meet">
<metadata>
Created by potrace 1.11, written by Peter Selinger 2001-2013
</metadata>
<g transform="translate(0.000000,700.000000) scale(0.100000,-0.100000)"
fill="#000000" stroke="none">
<path d="M1040 3486 l0 -2817 1493 4 c1337 3 1504 5 1607 20 361 53 649 155
899 317 450 292 780 783 971 1445 159 550 193 1234 91 1810 -91 512 -287 945
-586 1293 -354 412 -818 648 -1410 718 -109 13 -365 17 -1597 21 l-1468 5 0
-2816z m2595 2125 c213 -48 403 -125 557 -227 40 -27 121 -96 179 -154 274
-273 455 -702 524 -1241 21 -170 38 -517 31 -649 -61 -1110 -519 -1828 -1263
-1979 -174 -36 -273 -41 -845 -41 l-558 0 0 2160 0 2161 638 -4 c618 -3 640
-4 737 -26z"/>
<path d="M3520 5357 c-9 -7 -24 -34 -34 -61 -21 -54 -71 -137 -206 -341 -49
-75 -90 -141 -90 -146 0 -5 -74 -9 -172 -9 -95 0 -178 -4 -184 -8 -15 -10 -32
-95 -23 -118 4 -10 8 -103 8 -206 1 -175 2 -188 20 -198 21 -11 419 -14 459
-4 l23 7 -2 275 -1 275 69 101 c198 287 245 393 191 430 -27 19 -38 19 -58 3z
m-391 -654 c-54 -89 -88 -141 -97 -147 -13 -8 -54 39 -100 117 l-41 67 130 0
131 0 -23 -37z m137 -370 c-4 -10 -50 -13 -196 -13 l-190 0 0 111 0 111 41
-41 c51 -50 105 -69 148 -52 31 13 78 76 152 201 l44 75 3 -190 c1 -104 0
-195 -2 -202z"/>
<path d="M3543 4723 c-88 -4 -117 -19 -93 -48 14 -16 109 -18 310 -6 92 5 105
8 108 25 2 10 -2 22 -10 27 -12 8 -137 9 -315 2z"/>
<path d="M3545 4351 c-99 -6 -100 -6 -100 -31 l0 -25 200 2 c158 2 202 6 214
17 12 12 12 18 1 30 -13 17 -98 19 -315 7z"/>
<path d="M3363 4000 c-268 -3 -406 -9 -413 -16 -6 -6 -8 -18 -4 -27 6 -16 44
-17 441 -17 280 0 441 4 454 10 41 23 8 62 -48 58 -15 -2 -209 -5 -430 -8z"/>
<path d="M2958 3603 c-21 -5 -25 -52 -5 -54 35 -4 865 3 880 8 12 3 17 12 15
26 l-3 22 -435 1 c-239 1 -443 0 -452 -3z"/>
<path d="M3279 3193 c-282 -3 -339 -6 -349 -18 -7 -8 -10 -22 -6 -30 5 -13 58
-15 409 -15 222 0 425 3 450 6 50 7 65 25 41 49 -12 12 -36 14 -112 13 -53 -2
-248 -4 -433 -5z"/>
<path d="M3073 2773 c-127 -3 -152 -6 -157 -20 -4 -8 -1 -22 6 -30 11 -13 69
-14 448 -8 344 6 438 10 449 21 12 11 12 16 1 28 -11 14 -51 16 -304 14 -160
-1 -359 -4 -443 -5z"/>
<path d="M2926 2307 c-11 -8 -15 -19 -10 -30 6 -16 39 -17 443 -17 459 0 484
2 468 44 -6 14 -47 16 -445 16 -340 0 -442 -3 -456 -13z"/>
</g>
</svg>
